Coordinates
version=1
nRows=16
nColumns=22
inDegrees=yes

Units are S.I. units (second, meters, Newtons, ...)
If the header above contains a line with 'inDegrees', this indicates whether rotational values are in degrees (yes) or radians (no).

endheader
time	pelvis_tilt	pelvis_list	pelvis_rotation	pelvis_tx	pelvis_ty	pelvis_tz	hip_flexion_r	hip_adduction_r	hip_rotation_r	knee_angle_r	ankle_angle_r	subtalar_angle_r	hip_flexion_l	hip_adduction_l	hip_rotation_l	knee_angle_l	ankle_angle_l	subtalar_angle_l	lumbar_extension	lumbar_bending	lumbar_rotation
      4.53000000	      0.49615116	      1.79978436	    276.41188184	     -0.64710404	      0.92520855	      0.38321412	     26.22576710	     -6.96736625	      4.85786617	    -61.92500483	      2.85089161	      3.96729376	     10.80178216	     12.13273782	      0.51806726	    -22.02506425	     10.72460563	    -14.75160134	     -5.61463582	     -8.34936746	     -6.04900614
      4.54000000	      0.35565742	      1.71121383	    277.83534376	     -0.64475066	      0.92587733	      0.39074098	     26.68100267	     -6.87707306	      5.30168493	    -59.89545078	      3.79120129	      3.52926521	      9.85957918	     12.17530322	      1.94004789	    -21.71528712	     10.87952997	    -14.72514915	     -5.81594395	     -8.10548721	     -6.78503526
      4.55000000	      0.18948449	      1.62091379	    279.27877536	     -0.64239236	      0.92648536	      0.39825271	     27.03392901	     -6.78691180	      5.64233878	    -57.68111841	      4.62109282	      3.19158989	      8.96056202	     12.15315052	      3.37958299	    -21.47603107	     11.07145297	    -14.63919296	     -6.00030037	     -7.83528301	     -7.52952371
      4.56000000	      0.00276513	      1.52157238	    280.72443235	     -0.64009145	      0.92702467	      0.40572171	     27.29417981	     -6.67660413	      5.90885366	    -55.31323414	      5.34288467	      2.93836992	      8.11190970	     12.07016614	      4.83482872	    -21.32459981	     11.30590067	    -14.50202513	     -6.18153867	     -7.55132944	     -8.24725620
      4.57000000	     -0.20198506	      1.42573061	    282.15914423	     -0.63784647	      0.92746469	      0.41315845	     27.48849221	     -6.54129257	      6.11162280	    -52.81651095	      5.93108229	      2.78688800	      7.32438961	     11.93222480	      6.26799187	    -21.24908431	     11.58255264	    -14.33680621	     -6.33886316	     -7.25563892	     -8.93856336
      4.58000000	     -0.42110717	      1.33751094	    283.56256656	     -0.63569891	      0.92778886	      0.42057440	     27.63656651	     -6.36709460	      6.28457469	    -50.21882512	      6.37123282	      2.74326987	      6.59703876	     11.74156024	      7.64987357	    -21.23161878	     11.89164966	    -14.16805588	     -6.46571365	     -6.95909045	     -9.58915251
      4.59000000	     -0.64384212	      1.25677483	    284.91727088	     -0.63366010	      0.92797760	      0.42795416	     27.75428972	     -6.14905931	      6.46610484	    -47.55088935	      6.67678204	      2.82231231	      5.93520267	     11.51670158	      8.97311003	    -21.28320421	     12.23124549	    -14.00979558	     -6.56684894	     -6.67426643	    -10.16475988
      4.60000000	     -0.86192185	      1.18748473	    286.20957166	     -0.63173042	      0.92802329	      0.43533747	     27.85540370	     -5.89406873	      6.67014896	    -44.83770507	      6.83636236	      3.04295905	      5.32600857	     11.26740993	     10.21438382	    -21.37603502	     12.59039053	    -13.87125780	     -6.63659032	     -6.41308711	    -10.67354501
      4.61000000	     -1.06448031	      1.12525276	    287.42831075	     -0.62989123	      0.92793717	      0.44274764	     27.93958321	     -5.61008557	      6.91264762	    -42.09615899	      6.85613721	      3.41852124	      4.75244695	     11.00761263	     11.36357997	    -21.49642456	     12.95537863	    -13.75289578	     -6.68139148	     -6.18432182	    -11.09719405
      4.62000000	     -1.24674768	      1.06798679	    288.56991417	     -0.62812070	      0.92772376	      0.45020032	     28.00917217	     -5.30822881	      7.18682894	    -39.34309330	      6.74462937	      3.94810957	      4.20168472	     10.74519120	     12.41641868	    -21.63243497	     13.32513925	    -13.65494231	     -6.70706802	     -5.98987718	    -11.44109837
      4.63000000	     -1.40691592	      1.01884690	    289.63198500	     -0.62641452	      0.92738862	      0.45772832	     28.06679046	     -4.99671821	      7.48228765	    -36.58705838	      6.52339349	      4.58930280	      3.66299930	     10.48076308	     13.35981560	    -21.76345112	     13.69525888	    -13.57910336	     -6.70902894	     -5.83182423	    -11.72989248
      4.64000000	     -1.54479274	      0.97202823	    290.61036997	     -0.62474543	      0.92693392	      0.46532929	     28.11053614	     -4.68311989	      7.77825727	    -33.83889442	      6.21078340	      5.31233663	      3.12691777	     10.22162807	     14.21836530	    -21.89250570	     14.07283236	    -13.52111749	     -6.69784776	     -5.70423903	    -11.93299983
      4.65000000	     -1.65773190	      0.92564405	    291.51030039	     -0.62310286	      0.92637733	      0.47303339	     28.12938862	     -4.37738850	      8.04775721	    -31.09381281	      5.83802126	      6.07404115	      2.57475695	      9.96421777	     14.97759089	    -21.99359198	     14.45462803	    -13.48019000	     -6.67638735	     -5.60678899	    -12.09749652
      4.66000000	     -1.74402381	      0.87746428	    292.33471555	     -0.62146728	      0.92572269	      0.48084772	     28.11867237	     -4.08635701	      8.26324407	    -28.35511906	      5.43326946	      6.83112545	      1.99907653	      9.71378874	     15.65046794	    -22.06465301	     14.84171963	    -13.45465209	     -6.64881112	     -5.53814483	    -12.22513628
      4.67000000	     -1.80155267	      0.82412178	    293.08974918	     -0.61982361	      0.92497257	      0.48877417	     28.07257130	     -3.81655389	      8.39806187	    -25.62547493	      5.02555267	      7.54902908	      1.39111382	      9.47141436	     16.24478657	    -22.10320834	     15.23313652	    -13.44262103	     -6.62346097	     -5.49742488	    -12.32696154
      4.68000000	     -1.82681731	      0.76168078	    293.78567911	     -0.61815043	      0.92413476	      0.49681101	     27.98257992	     -3.57296619	      8.43620023	    -22.91026512	      4.64162997	      8.20767330	      0.73892313	      9.23817627	     16.76321130	    -22.09981471	     15.62796280	    -13.44205091	     -6.60892879	     -5.48241149	    -12.42839909
